<svg id="Capa_1" enable-background="new 0 0 512 512" height="512" viewBox="0 0 512 512" width="512" xmlns="http://www.w3.org/2000/svg"><g><path d="m314.362 147.754h-93.153v-29.655c0-4.15-3.364-7.515-7.515-7.515h-.159c1.878-7.368 4.997-16.109 10.188-24.702 16.404-27.159 46.279-40.929 88.794-40.929 42.516 0 72.39 13.77 88.794 40.929 12.22 20.23 12.95 41.543 12.977 42.532v59.63c0 4.15 3.364 7.515 7.515 7.515s7.515-3.365 7.515-7.515l-.001-59.793c-.012-1.044-.46-25.837-15.14-50.14-19.314-31.975-53.518-48.187-101.659-48.187s-82.344 16.212-101.659 48.187c-6.977 11.551-10.737 23.258-12.766 32.473h-15.217c2.129-11.049 6.306-24.981 14.503-38.947 4.777-8.14 10.46-15.515 16.892-21.919 2.941-2.929 2.951-7.686.023-10.628-2.928-2.941-7.686-2.952-10.627-.023-7.344 7.313-13.821 15.711-19.25 24.963-9.939 16.936-14.618 33.778-16.816 46.554h-4.753c-4.151 0-7.515 3.365-7.515 7.515v29.655h-93.153c-20.718 0-37.573 16.855-37.573 37.573v225.185c0 20.718 16.855 37.573 37.573 37.573h29.896v37.509c0 14.56 11.845 26.405 26.405 26.405h139.579c14.56 0 26.405-11.845 26.405-26.405v-37.509h29.896c20.718 0 37.573-16.855 37.573-37.573v-225.185c.001-20.718-16.854-37.573-37.572-37.573zm-144-22.14h3.715.008.01 32.084v22.14h-35.818v-22.14zm99.074 359.981c0 6.272-5.103 11.376-11.376 11.376h-139.579c-6.273 0-11.376-5.103-11.376-11.376v-37.509h12.492v24.443c0 4.15 3.364 7.515 7.515 7.515h31.934c4.151 0 7.515-3.365 7.515-7.515s-3.364-7.515-7.515-7.515h-24.419v-16.928h107.288v16.928h-53.644c-4.151 0-7.515 3.365-7.515 7.515s3.364 7.515 7.515 7.515h61.159c4.151 0 7.515-3.365 7.515-7.515v-24.443h12.492v37.509zm67.47-75.083c0 12.431-10.113 22.544-22.544 22.544h-252.182c-12.431 0-22.544-10.113-22.544-22.544v-225.185c0-12.431 10.113-22.544 22.544-22.544h252.182c12.431 0 22.544 10.113 22.544 22.544z"/><path d="m198.808 293.894c-1.41-1.409-3.321-2.201-5.314-2.201h-29.647c-9.351 0-16.96 7.608-16.96 16.96v67.535c0 9.351 7.609 16.959 16.96 16.959h48.847c9.351 0 16.96-7.608 16.96-16.959v-48.334c0-1.993-.792-3.904-2.201-5.314zm15.817 82.294c0 1.064-.866 1.93-1.93 1.93h-48.847c-1.065 0-1.931-.866-1.931-1.93v-67.535c0-1.065.866-1.931 1.931-1.931h26.534l24.244 24.244v45.222z"/><path d="m159.301 264.279h57.939c2.9 0 5.541-1.669 6.787-4.288s.872-5.721-.959-7.97l-28.97-35.591c-1.427-1.753-3.568-2.771-5.828-2.771s-4.401 1.018-5.828 2.771l-28.97 35.591c-1.831 2.249-2.204 5.351-.959 7.97 1.247 2.619 3.888 4.288 6.788 4.288zm28.97-31.202 13.163 16.172h-26.327z"/><path d="m479.879 309.771h-10.175v-37.434c0-4.15-3.364-7.515-7.515-7.515h-2.947v-136.485c0-1.33-.211-32.934-18.621-64.306-17.143-29.211-53.283-64.031-128.103-64.031-32.319 0-60.346 6.626-83.302 19.694-3.607 2.053-4.867 6.641-2.813 10.249 2.053 3.607 6.643 4.867 10.247 2.813 20.663-11.762 46.189-17.726 75.868-17.726 37.372 0 87.683 9.821 115.14 56.608 16.367 27.89 16.555 55.536 16.555 56.7v136.486h-14.894v-46.719c0-4.15-3.364-7.515-7.515-7.515s-7.515 3.364-7.515 7.515v46.719h-2.947c-4.151 0-7.515 3.365-7.515 7.515v37.434h-10.176c-4.151 0-7.515 3.365-7.515 7.515v119.674c0 4.15 3.364 7.515 7.515 7.515h5.68v60.011c0 4.15 3.364 7.515 7.515 7.515h59.84c4.151 0 7.515-3.365 7.515-7.515v-60.011h5.679c4.151 0 7.515-3.365 7.515-7.515v-119.676c-.002-4.151-3.366-7.515-7.516-7.515zm-61.023-29.919h35.818v29.919h-35.818zm-17.691 44.948h71.199v104.644h-71.199zm58.005 172.171h-44.81v-52.497h44.81z"/></g></svg>